<svg xmlns="http://www.w3.org/2000/svg" viewBox="0 0 1280 720" fill="none">
  <defs>
    <linearGradient id="bg" x1="0" y1="0" x2="1" y2="1">
      <stop offset="0%" stop-color="#172238"/>
      <stop offset="100%" stop-color="#07101b"/>
    </linearGradient>
    <linearGradient id="accent" x1="0" y1="0" x2="1" y2="1">
      <stop offset="0%" stop-color="#5ca0ff"/>
      <stop offset="100%" stop-color="#d3e6ff"/>
    </linearGradient>
  </defs>
  <rect width="1280" height="720" rx="40" fill="url(#bg)"/>
  <circle cx="1060" cy="126" r="160" fill="#4b82ea" fill-opacity="0.18"/>
  <rect x="72" y="86" width="1136" height="548" rx="28" fill="#0e1727" fill-opacity="0.8" stroke="#7aa6f1" stroke-opacity="0.24"/>
  <rect x="114" y="138" width="550" height="372" rx="24" fill="#111d31"/>
  <rect x="702" y="138" width="434" height="172" rx="24" fill="#111d31"/>
  <rect x="702" y="338" width="434" height="172" rx="24" fill="#111d31"/>
  <rect x="146" y="176" width="242" height="18" rx="9" fill="url(#accent)"/>
  <rect x="146" y="226" width="368" height="14" rx="7" fill="#d8e7ff" fill-opacity="0.34"/>
  <rect x="146" y="260" width="310" height="14" rx="7" fill="#d8e7ff" fill-opacity="0.22"/>
  <rect x="146" y="312" width="430" height="18" rx="9" fill="#182746"/>
  <rect x="146" y="346" width="384" height="18" rx="9" fill="#182746"/>
  <rect x="146" y="380" width="286" height="18" rx="9" fill="#182746"/>
  <rect x="734" y="176" width="150" height="14" rx="7" fill="url(#accent)"/>
  <rect x="734" y="214" width="262" height="12" rx="6" fill="#d8e7ff" fill-opacity="0.28"/>
  <rect x="734" y="246" width="198" height="12" rx="6" fill="#d8e7ff" fill-opacity="0.2"/>
  <rect x="734" y="378" width="224" height="12" rx="6" fill="#d8e7ff" fill-opacity="0.28"/>
  <rect x="734" y="410" width="178" height="12" rx="6" fill="#d8e7ff" fill-opacity="0.2"/>
  <text x="120" y="606" fill="#edf4ff" font-family="Inter, Arial, sans-serif" font-size="34" font-weight="700">Cars Arena</text>
  <text x="120" y="640" fill="#a6c0ea" font-family="Inter, Arial, sans-serif" font-size="18">Marketplace for discovering cars</text>
</svg>