<svg xmlns="http://www.w3.org/2000/svg" viewBox="0 0 960 640" fill="none">
  <defs>
    <linearGradient id="bg" x1="0" y1="0" x2="1" y2="1">
      <stop offset="0%" stop-color="#16233a"/>
      <stop offset="100%" stop-color="#07101b"/>
    </linearGradient>
    <linearGradient id="accent" x1="0" y1="0" x2="1" y2="1">
      <stop offset="0%" stop-color="#5ca0ff"/>
      <stop offset="100%" stop-color="#d3e6ff"/>
    </linearGradient>
  </defs>
  <rect width="960" height="640" rx="36" fill="url(#bg)"/>
  <rect x="58" y="70" width="844" height="500" rx="28" fill="#0d1627" stroke="#7aa6f1" stroke-opacity="0.2"/>
  <rect x="96" y="120" width="310" height="400" rx="24" fill="#111d31"/>
  <rect x="436" y="120" width="426" height="400" rx="24" fill="#111d31"/>
  <circle cx="251" cy="210" r="54" fill="url(#accent)" fill-opacity="0.18"/>
  <rect x="156" y="302" width="192" height="14" rx="7" fill="#d8e7ff" fill-opacity="0.3"/>
  <rect x="156" y="336" width="160" height="12" rx="6" fill="#7aa6f1"/>
  <rect x="476" y="162" width="220" height="18" rx="9" fill="url(#accent)"/>
  <rect x="476" y="208" width="280" height="14" rx="7" fill="#d8e7ff" fill-opacity="0.28"/>
  <rect x="476" y="242" width="220" height="14" rx="7" fill="#d8e7ff" fill-opacity="0.18"/>
  <rect x="476" y="306" width="328" height="74" rx="18" fill="#182746"/>
  <rect x="476" y="398" width="284" height="74" rx="18" fill="#182746"/>
  <text x="120" y="556" fill="#edf4ff" font-family="Inter, Arial, sans-serif" font-size="28" font-weight="700">Dealer profile</text>
</svg>