<svg xmlns="http://www.w3.org/2000/svg" viewBox="0 0 1280 720" fill="none">
  <defs>
    <linearGradient id="bg" x1="0" y1="0" x2="1" y2="1">
      <stop offset="0%" stop-color="#0d1b34"/>
      <stop offset="100%" stop-color="#07101f"/>
    </linearGradient>
    <linearGradient id="accent" x1="0" y1="0" x2="1" y2="1">
      <stop offset="0%" stop-color="#4f97ff"/>
      <stop offset="100%" stop-color="#9bc4ff"/>
    </linearGradient>
  </defs>
  <rect width="1280" height="720" rx="40" fill="url(#bg)"/>
  <circle cx="1120" cy="110" r="160" fill="#2b67d8" fill-opacity="0.24"/>
  <rect x="72" y="86" width="1136" height="548" rx="28" fill="#0e1727" fill-opacity="0.78" stroke="#7aa6f1" stroke-opacity="0.28"/>
  <rect x="118" y="144" width="472" height="350" rx="24" fill="#101b2f" stroke="#7aa6f1" stroke-opacity="0.3"/>
  <rect x="658" y="144" width="530" height="152" rx="22" fill="#101b2f" stroke="#7aa6f1" stroke-opacity="0.3"/>
  <rect x="658" y="328" width="530" height="166" rx="22" fill="#101b2f" stroke="#7aa6f1" stroke-opacity="0.3"/>
  <rect x="148" y="176" width="190" height="18" rx="9" fill="url(#accent)"/>
  <rect x="148" y="222" width="358" height="14" rx="7" fill="#d8e7ff" fill-opacity="0.4"/>
  <rect x="148" y="252" width="312" height="14" rx="7" fill="#d8e7ff" fill-opacity="0.25"/>
  <rect x="148" y="282" width="292" height="14" rx="7" fill="#d8e7ff" fill-opacity="0.25"/>
  <rect x="148" y="342" width="360" height="22" rx="11" fill="#1d3154"/>
  <rect x="148" y="382" width="292" height="22" rx="11" fill="#1d3154"/>
  <rect x="688" y="178" width="212" height="16" rx="8" fill="url(#accent)"/>
  <rect x="688" y="214" width="408" height="16" rx="8" fill="#d8e7ff" fill-opacity="0.3"/>
  <rect x="688" y="246" width="332" height="16" rx="8" fill="#d8e7ff" fill-opacity="0.22"/>
  <rect x="688" y="358" width="408" height="16" rx="8" fill="#d8e7ff" fill-opacity="0.3"/>
  <rect x="688" y="390" width="332" height="16" rx="8" fill="#d8e7ff" fill-opacity="0.22"/>
  <text x="120" y="606" fill="#edf4ff" font-family="Inter, Arial, sans-serif" font-size="34" font-weight="700">Stockify</text>
  <text x="120" y="640" fill="#a6c0ea" font-family="Inter, Arial, sans-serif" font-size="18">Inventory management dashboard</text>
</svg>