<svg xmlns="http://www.w3.org/2000/svg" viewBox="0 0 960 640" fill="none">
  <defs>
    <linearGradient id="bg" x1="0" y1="0" x2="1" y2="1">
      <stop offset="0%" stop-color="#0f2343"/>
      <stop offset="100%" stop-color="#07101d"/>
    </linearGradient>
    <linearGradient id="accent" x1="0" y1="0" x2="1" y2="1">
      <stop offset="0%" stop-color="#5ca0ff"/>
      <stop offset="100%" stop-color="#b7d3ff"/>
    </linearGradient>
  </defs>
  <rect width="960" height="640" rx="36" fill="url(#bg)"/>
  <rect x="48" y="56" width="864" height="528" rx="26" fill="#0d1526" stroke="#7aa6f1" stroke-opacity="0.22"/>
  <rect x="88" y="100" width="220" height="88" rx="20" fill="#12203a"/>
  <rect x="340" y="100" width="220" height="88" rx="20" fill="#12203a"/>
  <rect x="592" y="100" width="220" height="88" rx="20" fill="#12203a"/>
  <rect x="88" y="236" width="724" height="260" rx="20" fill="#111c31"/>
  <rect x="118" y="266" width="220" height="18" rx="9" fill="url(#accent)"/>
  <rect x="118" y="308" width="160" height="14" rx="7" fill="#dce8ff" fill-opacity="0.28"/>
  <rect x="118" y="342" width="390" height="14" rx="7" fill="#dce8ff" fill-opacity="0.18"/>
  <rect x="118" y="376" width="332" height="14" rx="7" fill="#dce8ff" fill-opacity="0.18"/>
  <rect x="118" y="422" width="520" height="44" rx="12" fill="#162746"/>
  <rect x="118" y="484" width="272" height="12" rx="6" fill="#7aa6f1"/>
  <text x="88" y="560" fill="#edf4ff" font-family="Inter, Arial, sans-serif" font-size="28" font-weight="700">Realtime dashboard</text>
</svg>