<svg xmlns="http://www.w3.org/2000/svg" viewBox="0 0 960 640" fill="none">
  <defs>
    <linearGradient id="bg" x1="0" y1="0" x2="1" y2="1">
      <stop offset="0%" stop-color="#13243f"/>
      <stop offset="100%" stop-color="#07101c"/>
    </linearGradient>
    <linearGradient id="accent" x1="0" y1="0" x2="1" y2="1">
      <stop offset="0%" stop-color="#5ca0ff"/>
      <stop offset="100%" stop-color="#b9d5ff"/>
    </linearGradient>
  </defs>
  <rect width="960" height="640" rx="36" fill="url(#bg)"/>
  <rect x="60" y="70" width="840" height="500" rx="28" fill="#0d1627" stroke="#7aa6f1" stroke-opacity="0.2"/>
  <rect x="100" y="116" width="760" height="76" rx="18" fill="#111d31"/>
  <rect x="100" y="218" width="360" height="312" rx="22" fill="#111d31"/>
  <rect x="492" y="218" width="368" height="312" rx="22" fill="#111d31"/>
  <rect x="134" y="144" width="226" height="14" rx="7" fill="url(#accent)"/>
  <rect x="134" y="258" width="290" height="18" rx="9" fill="#182746"/>
  <rect x="134" y="298" width="266" height="18" rx="9" fill="#182746"/>
  <rect x="134" y="338" width="238" height="18" rx="9" fill="#182746"/>
  <rect x="522" y="252" width="270" height="18" rx="9" fill="url(#accent)"/>
  <rect x="522" y="300" width="200" height="14" rx="7" fill="#d8e7ff" fill-opacity="0.28"/>
  <rect x="522" y="336" width="240" height="14" rx="7" fill="#d8e7ff" fill-opacity="0.2"/>
  <rect x="522" y="372" width="180" height="14" rx="7" fill="#d8e7ff" fill-opacity="0.2"/>
  <text x="114" y="556" fill="#edf4ff" font-family="Inter, Arial, sans-serif" font-size="28" font-weight="700">Academic administration</text>
</svg>