<svg xmlns="http://www.w3.org/2000/svg" viewBox="0 0 960 640" fill="none">
  <defs>
    <linearGradient id="bg" x1="0" y1="0" x2="1" y2="1">
      <stop offset="0%" stop-color="#10203d"/>
      <stop offset="100%" stop-color="#07101b"/>
    </linearGradient>
    <linearGradient id="accent" x1="0" y1="0" x2="1" y2="1">
      <stop offset="0%" stop-color="#5ca0ff"/>
      <stop offset="100%" stop-color="#d3e6ff"/>
    </linearGradient>
  </defs>
  <rect width="960" height="640" rx="36" fill="url(#bg)"/>
  <rect x="70" y="70" width="820" height="500" rx="28" fill="#0d1627" stroke="#7aa6f1" stroke-opacity="0.2"/>
  <rect x="106" y="116" width="748" height="78" rx="18" fill="#111d31"/>
  <rect x="106" y="228" width="748" height="64" rx="18" fill="#111d31"/>
  <rect x="106" y="312" width="748" height="64" rx="18" fill="#111d31"/>
  <rect x="106" y="396" width="748" height="64" rx="18" fill="#111d31"/>
  <circle cx="160" cy="256" r="18" fill="#5ca0ff" fill-opacity="0.24"/>
  <circle cx="160" cy="340" r="18" fill="#5ca0ff" fill-opacity="0.24"/>
  <circle cx="160" cy="424" r="18" fill="#5ca0ff" fill-opacity="0.24"/>
  <rect x="236" y="250" width="220" height="14" rx="7" fill="#d8e7ff" fill-opacity="0.28"/>
  <rect x="236" y="334" width="220" height="14" rx="7" fill="#d8e7ff" fill-opacity="0.28"/>
  <rect x="236" y="418" width="220" height="14" rx="7" fill="#d8e7ff" fill-opacity="0.28"/>
  <rect x="648" y="242" width="128" height="30" rx="15" fill="url(#accent)"/>
  <rect x="648" y="326" width="128" height="30" rx="15" fill="url(#accent)"/>
  <rect x="648" y="410" width="128" height="30" rx="15" fill="url(#accent)"/>
  <text x="114" y="556" fill="#edf4ff" font-family="Inter, Arial, sans-serif" font-size="28" font-weight="700">Attendance tracking</text>
</svg>