<svg xmlns="http://www.w3.org/2000/svg" viewBox="0 0 1280 720" fill="none">
  <defs>
    <linearGradient id="bg" x1="0" y1="0" x2="1" y2="1">
      <stop offset="0%" stop-color="#13213d"/>
      <stop offset="100%" stop-color="#07101d"/>
    </linearGradient>
    <linearGradient id="accent" x1="0" y1="0" x2="1" y2="1">
      <stop offset="0%" stop-color="#5ca0ff"/>
      <stop offset="100%" stop-color="#b9d5ff"/>
    </linearGradient>
  </defs>
  <rect width="1280" height="720" rx="40" fill="url(#bg)"/>
  <circle cx="1110" cy="116" r="150" fill="#3d7ce5" fill-opacity="0.2"/>
  <rect x="70" y="88" width="1140" height="544" rx="28" fill="#0e1727" fill-opacity="0.8" stroke="#7aa6f1" stroke-opacity="0.24"/>
  <rect x="114" y="140" width="330" height="368" rx="24" fill="#111d31"/>
  <rect x="480" y="140" width="258" height="368" rx="24" fill="#111d31"/>
  <rect x="768" y="140" width="370" height="172" rx="24" fill="#111d31"/>
  <rect x="768" y="336" width="370" height="172" rx="24" fill="#111d31"/>
  <rect x="146" y="176" width="196" height="18" rx="9" fill="url(#accent)"/>
  <rect x="146" y="220" width="240" height="14" rx="7" fill="#d8e7ff" fill-opacity="0.35"/>
  <rect x="146" y="252" width="190" height="14" rx="7" fill="#d8e7ff" fill-opacity="0.22"/>
  <rect x="146" y="292" width="240" height="20" rx="10" fill="#182746"/>
  <rect x="146" y="328" width="212" height="20" rx="10" fill="#182746"/>
  <rect x="146" y="364" width="184" height="20" rx="10" fill="#182746"/>
  <rect x="514" y="178" width="160" height="14" rx="7" fill="url(#accent)"/>
  <rect x="514" y="214" width="156" height="12" rx="6" fill="#d8e7ff" fill-opacity="0.24"/>
  <rect x="802" y="178" width="166" height="14" rx="7" fill="url(#accent)"/>
  <rect x="802" y="214" width="214" height="12" rx="6" fill="#d8e7ff" fill-opacity="0.24"/>
  <text x="118" y="606" fill="#edf4ff" font-family="Inter, Arial, sans-serif" font-size="34" font-weight="700">UKK School System</text>
  <text x="118" y="640" fill="#a6c0ea" font-family="Inter, Arial, sans-serif" font-size="18">Academic operations dashboard</text>
</svg>